<!-- Generated by IcoMoon.io -->
<svg version="1.1" xmlns="http://www.w3.org/2000/svg" width="384" height="448" fill="#ff6b08" viewBox="0 0 384 448">
<title>arrow-circle-o-up</title>
<g id="icomoon-ignore">
</g>
<path  d="M279.5 219c-1.25 3-4.25 5-7.5 5h-48v88c0 4.5-3.5 8-8 8h-48c-4.5 0-8-3.5-8-8v-88h-48c-4.5 0-8-3.5-8-8 0-2.25 1-4.25 2.5-6l79.75-79.75c1.75-1.5 3.75-2.25 5.75-2.25s4 0.75 5.75 2.25l80 80c2.25 2.5 3 5.75 1.75 8.75zM192 88c-75 0-136 61-136 136s61 136 136 136 136-61 136-136-61-136-136-136zM384 224c0 106-86 192-192 192s-192-86-192-192 86-192 192-192v0c106 0 192 86 192 192z"></path>
</svg>
