<svg aria-hidden="true" style="position: absolute; width: 0; height: 0; overflow: hidden;" version="1.1" xmlns="http://www.w3.org/2000/svg" xmlns:xlink="http://www.w3.org/1999/xlink">
<defs>
<symbol id="icon-arrow-left" viewBox="0 0 32 32">
<path stroke-linejoin="round" stroke-linecap="round" stroke-miterlimit="4" stroke-width="2.666" d="M25.334 16h-18.668M16 25.334l-9.334-9.334 9.334-9.334"></path>
</symbol>
<symbol id="icon-arrow-right" viewBox="0 0 32 32">
<path stroke-linejoin="round" stroke-linecap="round" stroke-miterlimit="4" stroke-width="2.666" d="M6.666 16h18.668M16 25.334l9.334-9.334-9.334-9.334"></path>
</symbol>
<symbol id="icon-close" viewBox="0 0 32 32"><path d="M23.734 10.304l-1.504-1.504-5.963 5.962-5.962-5.962-1.504 1.504 5.962 5.962-5.962 5.963 1.504 1.504 5.962-5.963 5.963 5.963 1.504-1.504-5.963-5.963 5.963-5.962z"></path>
</symbol>
<symbol id="icon-favorite" viewBox="0 0 32 32">
<path fill="#ff6b08" style="fill: var(--color1, #ff6b08)" d="M16 30.583l-2.24-2.24c-8.32-7.36-13.76-12.32-13.76-18.4 0-4.96 3.84-8.8 8.8-8.8 2.72 0 5.44 1.28 7.2 3.36 1.76-2.080 4.48-3.36 7.2-3.36 4.96 0 8.8 3.84 8.8 8.8 0 6.080-5.44 11.040-13.76 18.4l-2.24 2.24z"></path>
</symbol>
<symbol id="icon-film" viewBox="0 0 32 32">
<path fill="none" stroke="#fff" style="stroke: var(--color2, #fff)" stroke-linejoin="round" stroke-linecap="round" stroke-miterlimit="4" stroke-width="2.6667" d="M26.427 2.667h-20.853c-1.605 0-2.907 1.301-2.907 2.907v0 20.853c0 1.605 1.301 2.907 2.907 2.907v0h20.853c1.605 0 2.907-1.301 2.907-2.907v0-20.853c0-1.605-1.301-2.907-2.907-2.907v0zM9.333 2.667v26.667M22.667 2.667v26.667M2.667 16h26.667M2.667 9.333h6.667M2.667 22.667h6.667M22.667 22.667h6.667M22.667 9.333h6.667"></path>
</symbol>
<symbol id="icon-search-2" viewBox="0 0 32 32">
<path fill="none" stroke="#fff" style="stroke: var(--color2, #fff)" stroke-linejoin="round" stroke-linecap="round" stroke-miterlimit="4" stroke-width="2.6667" d="M14.667 25.333c5.891 0 10.667-4.776 10.667-10.667s-4.776-10.667-10.667-10.667v0c-5.891 0-10.667 4.776-10.667 10.667s4.776 10.667 10.667 10.667v0zM28 28l-5.8-5.8"></path>
</symbol>
<symbol id="icon-github" viewBox="0 0 32 32">
<path d="M15.938 0.438c-8.801 0-15.938 7.136-15.938 15.938 0 7.042 4.567 13.016 10.899 15.124 0.796 0.148 1.089-0.346 1.089-0.767 0-0.38-0.015-1.636-0.022-2.967-4.434 0.964-5.37-1.881-5.37-1.881-0.725-1.842-1.77-2.332-1.77-2.332-1.446-0.989 0.109-0.969 0.109-0.969 1.601 0.113 2.443 1.642 2.443 1.642 1.421 2.437 3.728 1.732 4.638 1.325 0.143-1.030 0.556-1.733 1.012-2.131-3.54-0.403-7.261-1.77-7.261-7.877 0-1.74 0.623-3.162 1.642-4.278-0.165-0.402-0.711-2.023 0.154-4.218 0 0 1.338-0.428 4.384 1.634 1.271-0.353 2.635-0.53 3.989-0.536 1.355 0.006 2.719 0.183 3.993 0.536 3.042-2.062 4.379-1.634 4.379-1.634 0.867 2.195 0.322 3.816 0.156 4.218 1.022 1.116 1.64 2.538 1.64 4.278 0 6.122-3.729 7.47-7.277 7.864 0.572 0.495 1.081 1.465 1.081 2.951 0 2.133-0.018 3.849-0.018 4.374 0 0.424 0.287 0.921 1.095 0.765 6.329-2.11 10.89-8.082 10.89-15.122 0-8.803-7.136-15.938-15.938-15.938z"></path>
<path d="M5.969 23.142c-0.035 0.079-0.16 0.103-0.273 0.049-0.116-0.052-0.181-0.16-0.143-0.239 0.034-0.081 0.159-0.104 0.274-0.049 0.116 0.052 0.182 0.161 0.142 0.24zM6.753 23.841c-0.076 0.070-0.225 0.038-0.325-0.074-0.104-0.111-0.124-0.26-0.047-0.331 0.078-0.070 0.223-0.038 0.327 0.074 0.104 0.112 0.125 0.26 0.045 0.331zM7.291 24.736c-0.098 0.068-0.258 0.004-0.356-0.137-0.098-0.142-0.098-0.312 0.002-0.38s0.256-0.007 0.356 0.134c0.098 0.144 0.098 0.314-0.002 0.384zM8.201 25.773c-0.087 0.096-0.273 0.070-0.41-0.061-0.139-0.128-0.178-0.311-0.090-0.407s0.276-0.069 0.413 0.061c0.138 0.128 0.181 0.312 0.088 0.407zM9.376 26.123c-0.038 0.125-0.218 0.181-0.398 0.128-0.18-0.055-0.298-0.201-0.262-0.327 0.037-0.126 0.217-0.185 0.399-0.128 0.18 0.054 0.298 0.2 0.261 0.326zM10.714 26.271c0.005 0.131-0.149 0.241-0.338 0.243-0.191 0.004-0.345-0.102-0.347-0.232 0-0.133 0.15-0.241 0.34-0.244s0.345 0.102 0.345 0.233zM12.028 26.221c0.023 0.128-0.109 0.26-0.297 0.295-0.185 0.034-0.356-0.045-0.38-0.172-0.023-0.131 0.111-0.263 0.296-0.297 0.188-0.033 0.357 0.044 0.381 0.175z"></path>
</symbol>
<symbol id="icon-linkedin" viewBox="0 0 32 32">
<path d="M7.449 10.295h-6.424c-0.285 0-0.516 0.231-0.516 0.516v0 20.638c0 0.285 0.231 0.516 0.516 0.516v0h6.424c0.285 0 0.516-0.231 0.516-0.516v0-20.638c0-0.285-0.231-0.516-0.516-0.516v0zM4.239 0.035c-2.337 0-4.239 1.9-4.239 4.234 0 2.336 1.902 4.236 4.239 4.236 2.336 0 4.236-1.9 4.236-4.236s-1.9-4.234-4.236-4.234zM23.789 9.782c-2.58 0-4.487 1.109-5.644 2.369v-1.34c0-0.285-0.231-0.516-0.516-0.516v0h-6.152c-0.285 0-0.516 0.231-0.516 0.516v0 20.638c0 0.285 0.231 0.516 0.516 0.516v0h6.41c0.285 0 0.516-0.231 0.516-0.516v0-10.211c0-3.441 0.935-4.781 3.333-4.781 2.612 0 2.82 2.149 2.82 4.958v10.034c0 0.285 0.231 0.516 0.516 0.516v0h6.412c0.285 0 0.516-0.231 0.516-0.516v0-11.32c0-5.116-0.976-10.347-8.211-10.347z"></path>
</symbol>
<symbol id="icon-message" viewBox="0 0 32 32">
<path d="M30.080 26.24c0.353 0 0.64-0.287 0.64-0.64v-19.2c0-0.353-0.287-0.64-0.64-0.64h-28.16c-0.353 0-0.64 0.287-0.64 0.64v19.2c0 0.353 0.287 0.64 0.64 0.64h28.16zM30.080 27.52h-28.16c-1.060 0-1.92-0.86-1.92-1.92v-19.2c0-1.060 0.86-1.92 1.92-1.92h28.16c1.060 0 1.92 0.86 1.92 1.92v19.2c0 1.060-0.86 1.92-1.92 1.92z"></path>
<path d="M30.372 5.161l-14.134 11.654c-0.171 0.141-0.496 0.141-0.667-0l-14.203-11.712c-0.273-0.225-0.676-0.186-0.901 0.087s-0.186 0.676 0.087 0.901l14.204 11.712c0.644 0.531 1.652 0.531 2.295 0l14.135-11.655c0.273-0.225 0.311-0.628 0.087-0.901s-0.628-0.311-0.901-0.087z"></path>
<path d="M12.983 15.52l-12.29 10.076c-0.273 0.224-0.313 0.627-0.089 0.901s0.627 0.313 0.901 0.089l12.29-10.076c0.273-0.224 0.313-0.627 0.089-0.901s-0.627-0.313-0.901-0.089zM31.629 25.753l-12.419-10.181c-0.273-0.224-0.677-0.184-0.901 0.089s-0.184 0.677 0.089 0.901l12.419 10.181c0.273 0.224 0.677 0.184 0.901-0.089s0.184-0.677-0.089-0.901z"></path>
</symbol>
</defs>
</svg>

